<svg xmlns="http://www.w3.org/2000/svg" xmlns:xlink="http://www.w3.org/1999/xlink" width="2000" zoomAndPan="magnify" viewBox="0 0 1500 1499.999933" height="2000" preserveAspectRatio="xMidYMid meet" version="1.0"><defs><clipPath id="327664b1ab"><path d="M 118.898438 0 L 1401 0 L 1401 1500 L 118.898438 1500 Z M 118.898438 0 " clip-rule="nonzero"/></clipPath></defs><g clip-path="url(#327664b1ab)"><path fill="#12d4a0" d="M 1107.121094 764.09375 C 1107.121094 776.691406 1100.820312 792.285156 1091.523438 804.582031 C 1082.226562 820.179688 1066.632812 835.773438 1044.738281 848.371094 L 614.359375 1144.6875 L 387.023438 1144.6875 L 387.023438 917.050781 L 614.65625 917.050781 L 614.65625 1499.785156 L 695.636719 1443.703125 L 1182.097656 1110.195312 L 1194.695312 1085.304688 C 1216.589844 1029.21875 1200.992188 960.539062 1182.097656 907.453125 C 1163.503906 860.667969 1138.3125 813.878906 1110.417969 767.09375 Z M 293.449219 178.058594 L 118.898438 178.058594 L 118.898438 355.910156 L 293.449219 355.910156 Z M 1085.226562 695.414062 C 1085.226562 695.414062 1272.375 941.644531 1209.992188 1091.300781 C 1263.074219 1057.113281 1303.5625 1016.621094 1334.753906 969.835938 C 1381.542969 901.15625 1403.4375 826.476562 1400.136719 748.5 C 1400.136719 673.820312 1375.246094 598.839844 1328.457031 530.160156 C 1294.265625 480.375 1247.480469 433.585938 1188.097656 393.097656 L 614.65625 0.207031 L 614.65625 355.609375 L 1023.144531 633.03125 C 1051.035156 654.925781 1072.929688 673.519531 1085.226562 695.414062 Z M 614.65625 355.609375 L 293.449219 355.609375 L 293.449219 676.816406 L 614.65625 676.816406 Z M 614.65625 355.609375 " fill-opacity="1" fill-rule="nonzero"/></g></svg>